<?xml version="1.0" encoding="utf-8"?>
<!-- Generator: Adobe Illustrator 27.9.0, SVG Export Plug-In . SVG Version: 6.00 Build 0)  -->
<svg version="1.1" id="Capa_1" xmlns="http://www.w3.org/2000/svg" xmlns:xlink="http://www.w3.org/1999/xlink" x="0px" y="0px"
	 viewBox="0 0 24 24" style="enable-background:new 0 0 24 24;" xml:space="preserve">
<style type="text/css">
	.st0{fill:#FFFFFF;}
</style>
<path class="st0" d="M1.2,7.5v8.9c0,1.1,0.6,2.1,1.5,2.7l7.7,4.5c1,0.6,2.1,0.6,3.1,0l7.7-4.5c1-0.6,1.5-1.6,1.5-2.7V7.5
	c0-1.1-0.6-2.1-1.5-2.7l-7.7-4.5c-1-0.6-2.1-0.6-3.1,0L2.7,4.9C1.8,5.4,1.2,6.4,1.2,7.5z M6.6,10.5v3.1c0,0.4,0.3,0.8,0.8,0.8
	c0,0,0,0,0,0c0.4,0,0.8-0.3,0.8-0.8c0-0.4,0.3-0.8,0.8-0.8c0.2,0,0.4,0.1,0.5,0.2c0.1,0.1,0.2,0.3,0.2,0.5c0,1.3-1,2.3-2.3,2.3
	s-2.3-1-2.3-2.3v-3.1c0-0.6,0.2-1.2,0.7-1.6c0.9-0.9,2.4-0.9,3.3,0c0,0,0,0,0,0c0.4,0.4,0.7,1,0.7,1.6c0,0.2-0.1,0.4-0.2,0.5
	c-0.3,0.3-0.8,0.3-1.1,0c0,0,0,0,0,0c-0.1-0.1-0.2-0.3-0.2-0.5c0-0.4-0.3-0.8-0.8-0.8c0,0,0,0,0,0C6.9,9.7,6.6,10,6.6,10.5
	C6.6,10.5,6.6,10.5,6.6,10.5z M18.9,13.5c0,0.4-0.3,0.8-0.8,0.8c0,0,0,0,0,0h-0.8v0.8c0,0.4-0.4,0.8-0.8,0.7c-0.4,0-0.7-0.3-0.7-0.7
	v-0.8h-1.5v0.8c0,0.4-0.3,0.8-0.8,0.8c-0.2,0-0.4-0.1-0.5-0.2c-0.1-0.1-0.2-0.3-0.2-0.5v-0.8H12c-0.4,0-0.8-0.3-0.8-0.8
	c0-0.4,0.3-0.8,0.8-0.8h0.8v-1.5H12c-0.4,0-0.8-0.3-0.8-0.8c0-0.4,0.3-0.8,0.8-0.8h0.8V8.9c0-0.4,0.3-0.8,0.8-0.8
	c0.2,0,0.4,0.1,0.5,0.2c0.1,0.1,0.2,0.3,0.2,0.5v0.8h1.5V8.9c0-0.4,0.4-0.8,0.8-0.7c0.4,0,0.7,0.3,0.7,0.7v0.8h0.8
	c0.4,0,0.8,0.3,0.8,0.8c0,0.4-0.3,0.8-0.8,0.8h-0.8v1.5h0.8C18.6,12.8,18.9,13.1,18.9,13.5z M15.9,11.2h-1.5v1.5h1.5V11.2z"/>
</svg>
