<?xml version="1.0" encoding="utf-8"?>
<!-- Generator: Adobe Illustrator 27.9.0, SVG Export Plug-In . SVG Version: 6.00 Build 0)  -->
<svg version="1.1" id="Capa_1" xmlns="http://www.w3.org/2000/svg" xmlns:xlink="http://www.w3.org/1999/xlink" x="0px" y="0px"
	 viewBox="0 0 24 24" style="enable-background:new 0 0 24 24;" xml:space="preserve">
<style type="text/css">
	.st0{fill:#FFFFFF;}
</style>
<path class="st0" d="M14.2,12c0,1.2-1,2.2-2.2,2.2c-1.2,0-2.2-1-2.2-2.2l0,0c0-1.2,1-2.2,2.2-2.2C13.2,9.8,14.2,10.8,14.2,12
	L14.2,12z M16.9,1.3c-1.3,0-3.1,1-4.9,2.6c-1.8-1.7-3.5-2.6-4.9-2.6C6.7,1.3,6.3,1.4,6,1.6C4.6,2.4,4.3,4.9,5,8c-3,0.9-5,2.4-5,4
	c0,1.6,2,3.1,5,4c-0.7,3.1-0.4,5.6,1,6.4c0.3,0.2,0.7,0.3,1.1,0.3c1.3,0,3.1-1,4.9-2.6c1.8,1.7,3.5,2.6,4.9,2.6
	c0.4,0,0.8-0.1,1.1-0.3c1.4-0.8,1.7-3.3,1-6.4c3-0.9,5-2.4,5-4c0-1.6-2-3.1-5-4c0.7-3.1,0.4-5.6-1-6.4C17.7,1.4,17.3,1.3,16.9,1.3
	L16.9,1.3z M16.9,2.4L16.9,2.4c0.2,0,0.4,0,0.6,0.1c0.7,0.4,1,1.8,0.7,3.7c-0.1,0.5-0.1,0.9-0.2,1.4c-1-0.2-2-0.4-3.1-0.5
	c-0.7-0.9-1.3-1.7-2-2.4C14.4,3.2,15.9,2.4,16.9,2.4L16.9,2.4z M7.1,2.4c1,0,2.5,0.8,4.1,2.3c-0.7,0.7-1.4,1.5-2,2.4
	C8.1,7.3,7,7.4,6.1,7.7C6,7.2,5.9,6.7,5.8,6.3C5.6,4.4,5.9,2.9,6.5,2.6C6.7,2.5,6.9,2.4,7.1,2.4L7.1,2.4z M12,5.5
	c0.5,0.5,0.9,1,1.4,1.6c-0.4,0-0.9,0-1.3,0c-0.5,0-0.9,0-1.4,0C11.1,6.5,11.5,5.9,12,5.5L12,5.5z M12,8.1c0.7,0,1.5,0,2.2,0.1
	c0.4,0.6,0.8,1.2,1.2,1.9c0.4,0.6,0.7,1.3,1,1.9c-0.3,0.7-0.6,1.3-1,1.9c-0.4,0.7-0.8,1.3-1.2,1.9c-0.7,0.1-1.5,0.1-2.2,0.1
	c-0.7,0-1.5,0-2.2-0.1C9.4,15.2,9,14.6,8.6,14c-0.4-0.6-0.7-1.3-1-1.9c0.3-0.7,0.6-1.3,1-2C9,9.4,9.4,8.8,9.8,8.2
	C10.5,8.1,11.3,8.1,12,8.1L12,8.1z M8.4,8.4C8.1,8.7,7.9,9.1,7.7,9.5C7.4,9.9,7.2,10.3,7,10.7C6.8,10,6.5,9.4,6.3,8.7
	C7,8.6,7.7,8.5,8.4,8.4L8.4,8.4z M15.6,8.4c0.7,0.1,1.4,0.2,2,0.4c-0.2,0.6-0.4,1.3-0.7,1.9c-0.2-0.4-0.4-0.8-0.6-1.2
	C16.1,9.1,15.9,8.7,15.6,8.4L15.6,8.4z M18.7,9c0.5,0.1,0.9,0.3,1.4,0.5c1.7,0.7,2.9,1.7,2.9,2.5c0,0.8-1.1,1.7-2.9,2.5
	c-0.4,0.2-0.9,0.3-1.4,0.5c-0.3-1-0.6-2-1.1-3C18.1,11,18.4,10,18.7,9L18.7,9z M5.3,9c0.3,1,0.6,2,1.1,3c-0.4,1-0.8,2-1.1,3
	c-0.5-0.1-0.9-0.3-1.4-0.5c-1.7-0.7-2.9-1.7-2.9-2.5s1.1-1.7,2.9-2.5C4.4,9.3,4.8,9.2,5.3,9z M17,13.3c0.3,0.7,0.5,1.3,0.7,1.9
	c-0.6,0.2-1.3,0.3-2,0.4c0.2-0.4,0.5-0.8,0.7-1.2C16.6,14.1,16.8,13.7,17,13.3L17,13.3z M7,13.3c0.2,0.4,0.4,0.8,0.6,1.2
	c0.2,0.4,0.5,0.8,0.7,1.1c-0.7-0.1-1.4-0.2-2-0.4C6.5,14.6,6.8,14,7,13.3L7,13.3z M17.9,16.3c0.1,0.5,0.2,1,0.3,1.4
	c0.2,1.9-0.1,3.3-0.7,3.7c-0.1,0.1-0.3,0.1-0.6,0.1c-1,0-2.5-0.8-4.1-2.3c0.7-0.7,1.4-1.5,2-2.4C15.9,16.7,17,16.6,17.9,16.3
	L17.9,16.3z M6.1,16.3c1,0.2,2,0.4,3.1,0.5c0.7,0.9,1.3,1.7,2,2.4c-1.6,1.5-3.1,2.3-4.1,2.3c-0.2,0-0.4,0-0.6-0.1
	c-0.7-0.4-1-1.8-0.7-3.7C5.9,17.3,6,16.8,6.1,16.3L6.1,16.3z M10.6,17c0.4,0,0.9,0,1.3,0c0.5,0,0.9,0,1.4,0
	c-0.4,0.6-0.9,1.1-1.3,1.6C11.6,18.1,11.1,17.5,10.6,17z"/>
</svg>
