<?xml version="1.0" encoding="utf-8"?>
<!-- Generator: Adobe Illustrator 27.9.0, SVG Export Plug-In . SVG Version: 6.00 Build 0)  -->
<svg version="1.1" id="Capa_1" xmlns="http://www.w3.org/2000/svg" xmlns:xlink="http://www.w3.org/1999/xlink" x="0px" y="0px"
	 viewBox="0 0 1080 1080" style="enable-background:new 0 0 1080 1080;" xml:space="preserve">
<style type="text/css">
	.st0{fill:#FFFFFF;}
	.st1{opacity:0.1;fill:#F2F2F2;enable-background:new    ;}
</style>
<path class="st0" d="M586.9,78c8.73,3.73,18.11,2.33,27.16,3.16C677.8,87,740.25,98.52,799.52,123.52
	c35.15,14.83,68.16,33.26,92.38,63.98c14.23,18.05,22.36,38.19,20.15,61.79c-0.61,6.5,0.45,13.14,0.45,19.72
	c0.03,185.33-0.58,370.66,0.49,555.99c0.24,41.64-17.66,71.24-48.81,95.15c-40.6,31.15-87.65,48.25-136.63,60.42
	c-76.15,18.92-153.55,24.5-231.8,20.52c-55.12-2.81-109.47-10.31-162.56-25.65c-42.08-12.15-82.43-28.26-117.5-55.29
	c-20.57-15.85-37.39-34.68-45.23-60.28c-2.52-8.22-3.07-16.53-3.07-24.95c-0.03-190.14-0.16-380.29,0.23-570.43
	c0.03-15.38-1.85-30.96,3.57-46.37c8.67-24.64,24.97-42.94,45.07-58.29c38.16-29.15,82.22-45.62,128.02-57.97
	c45.71-12.32,92.38-18.82,139.56-22.02c2.48-0.17,5.52,1.19,7.35-1.84C523.11,78,555.01,78,586.9,78z M540.05,108.11
	c-28.28,0.17-56.5,1.15-84.66,4.04c-54.62,5.61-108.16,15.93-159.19,36.74c-31.05,12.66-60.49,28.17-82.93,54.25
	c-19.27,22.39-21.17,46.48-4.87,71.02c11.75,17.69,28.46,30.04,46.49,40.56c53.66,31.29,112.77,45.38,173.48,53.91
	c55.87,7.85,112.01,9.26,168.3,5.49c64.8-4.33,128.28-15.03,188.72-39.74c29.94-12.24,58.36-27.28,80.04-52.24
	c12.46-14.35,20.31-30.53,15.98-50.34c-3.63-16.6-13.69-29.22-25.88-40.24c-28-25.32-61.72-40.28-96.97-51.98
	C687.64,116.07,614.37,108.22,540.05,108.11z M196.95,606.06c0,26.31,0.56,50.08-0.15,73.81c-0.77,25.61,10.51,45.01,28.93,61.22
	c26.9,23.68,58.92,38.23,92.29,49.58c67.96,23.11,138.46,31.18,209.84,32.78c33.35,0.75,66.58-1.56,99.78-4.85
	c54.03-5.36,106.72-16.26,157.13-36.65c28.82-11.66,56.2-26.13,77.84-49.23c9.3-9.92,17.08-21,18.82-35.1
	c3.39-27.56,0.72-55.25,1.47-82.86c0.06-2.16,1.14-4.75-1.41-6.83c-2.61,2.02-5.33,3.85-7.72,6.04
	c-24.6,22.49-53.87,37.09-84.49,49.05c-73.32,28.66-150.17,38.7-228.19,41.14c-55.92,1.75-111.58-2.46-166.68-12.46
	c-46.23-8.39-91.19-20.96-133.6-41.78C238.08,638.73,217.21,624.88,196.95,606.06z M883.23,754.45
	c-19.05,18.4-38.6,31.59-59.93,42.31c-73.33,36.84-152.36,50.7-233.06,55.14c-76.04,4.18-151.89,0.35-226.45-17.42
	c-49.07-11.69-96.38-27.7-138.6-56.26c-9.63-6.51-18.26-14.28-28.24-23.2c0,27.43-0.04,53.16,0.02,78.88
	c0.04,17.3,6.39,32.03,17.84,44.94c21.53,24.27,49.2,39.12,78.48,51.34c65.4,27.27,134.39,37.8,204.49,41.14
	c41.07,1.96,82.26,1.33,123.36-2.86c48.52-4.95,96.27-13.25,142.35-29.42c33.58-11.78,65.99-26.08,92.5-50.87
	c12.69-11.87,23.74-24.95,25.68-43.13C884.81,815.7,881.98,786.27,883.23,754.45z M196.95,310.21c0,24.29,0.43,48.6-0.12,72.88
	c-0.57,24.95,10.85,43.77,28.71,59.46c27.6,24.25,60.43,38.97,94.78,50.61c71.32,24.15,145.25,31.34,219.91,32.07
	c20.9,0.2,41.97-1.09,62.96-2.57c40.51-2.86,80.51-8.63,119.78-18.77c47.42-12.24,93.21-28.47,131.06-61.19
	c13.81-11.94,25.17-25.83,27.64-44.96c2.9-22.47,0.57-45.04,1.26-67.55c0.21-6.75,0.03-13.52,0.03-19.91
	c-3.05-0.78-4.03,0.54-5.04,1.53c-24.1,23.58-53.33,38.89-84.17,51.23c-48.47,19.4-98.98,30.68-150.82,36.6
	c-45.11,5.15-90.17,7.58-135.65,5.67c-49.33-2.08-98.08-7.57-146.09-18.81c-40.16-9.4-79.17-22.22-115.31-42.78
	C228.87,334.05,212.97,322.99,196.95,310.21z M882.97,457.2c-2.41,1.89-3.6,2.67-4.61,3.64c-21.07,20.36-46.08,34.75-72.64,46.26
	c-73.2,31.73-150.61,44.06-229.66,47.2c-30.9,1.23-61.88,1.02-92.86-1.08c-39.9-2.7-79.38-7.79-118.32-16.76
	c-43.5-10.01-85.58-23.92-124.36-46.65c-15.27-8.95-29.25-19.59-42.33-31.81c-2.07,3.04-1.18,5.78-1.19,8.32
	c-0.09,22.87,0.04,45.74-0.08,68.6c-0.09,18.04,6.61,33.21,18.52,46.51c21.23,23.72,48.49,38.49,77.18,50.37
	c67.39,27.9,138.52,38.45,210.8,41.65c29.38,1.3,58.85,0.77,88.34-0.97c43.27-2.55,85.95-8.39,127.98-18.73
	c42.52-10.46,83.6-24.82,119.72-50.37c20.65-14.61,39.1-31.46,42.81-58.59c0.89-6.51,0.66-13.19,0.68-19.79
	C883.02,502.9,882.97,480.79,882.97,457.2z"/>
<path class="st1" d="M196.95,606.06c20.26,18.81,41.13,32.67,63.86,43.83c42.4,20.82,87.37,33.39,133.6,41.78
	c55.1,10,110.75,14.21,166.68,12.46c78.02-2.44,154.87-12.48,228.19-41.14c30.62-11.97,59.88-26.56,84.49-49.05
	c2.39-2.19,5.11-4.01,7.72-6.04c2.55,2.08,1.47,4.67,1.41,6.83c-0.76,27.62,1.92,55.3-1.47,82.86c-1.74,14.11-9.53,25.18-18.82,35.1
	c-21.64,23.1-49.02,37.58-77.84,49.23c-50.41,20.39-103.1,31.29-157.13,36.65c-33.21,3.29-66.43,5.6-99.78,4.85
	c-71.38-1.59-141.89-9.67-209.84-32.78c-33.37-11.35-65.39-25.9-92.29-49.58c-18.42-16.21-29.7-35.61-28.93-61.22
	C197.51,656.14,196.95,632.38,196.95,606.06z"/>
<path class="st1" d="M883.23,754.45c-1.25,31.82,1.57,61.25-1.55,90.59c-1.94,18.19-12.99,31.26-25.68,43.13
	c-26.5,24.78-58.91,39.08-92.5,50.87c-46.09,16.17-93.83,24.47-142.35,29.42c-41.1,4.19-82.29,4.82-123.36,2.86
	c-70.11-3.34-139.09-13.87-204.49-41.14c-29.29-12.21-56.95-27.07-78.48-51.34c-11.45-12.91-17.8-27.64-17.84-44.94
	c-0.06-25.73-0.02-51.46-0.02-78.88c9.99,8.91,18.61,16.68,28.24,23.2c42.23,28.56,89.54,44.56,138.6,56.26
	c74.56,17.77,150.42,21.6,226.45,17.42c80.7-4.44,159.73-18.3,233.06-55.14C844.63,786.04,864.18,772.85,883.23,754.45z"/>
<path class="st1" d="M196.95,310.21c16.02,12.79,31.92,23.84,48.94,33.52c36.14,20.55,75.15,33.37,115.31,42.78
	c48.01,11.24,96.75,16.73,146.09,18.81c45.48,1.91,90.55-0.51,135.65-5.67c51.84-5.92,102.34-17.21,150.82-36.6
	c30.84-12.34,60.07-27.65,84.17-51.23c1.02-0.99,2-2.31,5.04-1.53c0,6.39,0.17,13.16-0.03,19.91c-0.69,22.51,1.64,45.08-1.26,67.55
	c-2.47,19.13-13.83,33.02-27.64,44.96c-37.86,32.72-83.65,48.95-131.06,61.19c-39.27,10.13-79.26,15.9-119.78,18.77
	c-20.99,1.48-42.06,2.78-62.96,2.57c-74.66-0.73-148.6-7.92-219.91-32.07c-34.35-11.63-67.18-26.36-94.78-50.61
	c-17.87-15.7-29.28-34.52-28.71-59.46C197.38,358.8,196.95,334.5,196.95,310.21z"/>
<path class="st1" d="M882.97,457.2c0,23.59,0.05,45.7-0.03,67.81c-0.02,6.6,0.21,13.29-0.68,19.79
	c-3.71,27.13-22.16,43.98-42.81,58.59c-36.13,25.55-77.21,39.91-119.72,50.37c-42.03,10.34-84.7,16.18-127.98,18.73
	c-29.48,1.74-58.96,2.27-88.34,0.97c-72.28-3.2-143.4-13.74-210.8-41.65c-28.69-11.88-55.95-26.65-77.18-50.37
	c-11.9-13.3-18.61-28.46-18.52-46.51c0.11-22.87-0.01-45.74,0.08-68.6c0.01-2.54-0.88-5.29,1.19-8.32
	c13.08,12.22,27.06,22.86,42.33,31.81c38.78,22.72,80.86,36.63,124.36,46.65c38.94,8.96,78.42,14.05,118.32,16.76
	c30.98,2.1,61.96,2.31,92.86,1.08c79.05-3.14,156.46-15.47,229.66-47.2c26.57-11.52,51.58-25.9,72.64-46.26
	C879.37,459.87,880.56,459.09,882.97,457.2z"/>
</svg>
